<svg xmlns="http://www.w3.org/2000/svg" xmlns:xlink="http://www.w3.org/1999/xlink" width="308" zoomAndPan="magnify" viewBox="0 0 230.87999 227.999995" height="304" preserveAspectRatio="xMidYMid meet" version="1.0"><defs><g/><clipPath id="0cc3cd6cd4"><path d="M 7.707031 81 L 64.394531 81 L 64.394531 138.363281 L 7.707031 138.363281 Z M 7.707031 81 " clip-rule="nonzero"/></clipPath></defs><g clip-path="url(#0cc3cd6cd4)"><path fill="#f04848" d="M 64.375 116.15625 C 64.375 123.046875 64.375 129.933594 64.375 136.824219 C 64.375 138.066406 64.035156 138.40625 62.804688 138.40625 L 41.625 138.40625 L 41.625 132.398438 C 44.761719 133.320312 47.15625 132.449219 48.757812 129.8125 C 49.050781 129.324219 49.257812 128.800781 49.386719 128.246094 C 49.515625 127.691406 49.558594 127.132812 49.511719 126.566406 C 49.464844 126 49.335938 125.453125 49.117188 124.925781 C 48.898438 124.398438 48.609375 123.917969 48.242188 123.484375 C 46.53125 121.433594 44.300781 120.828125 41.609375 121.6875 L 41.609375 115.683594 C 41.675781 115.675781 41.738281 115.667969 41.804688 115.667969 L 43.0625 115.667969 C 45.152344 115.667969 47.246094 115.667969 49.335938 115.675781 L 49.367188 115.675781 C 49.617188 115.71875 49.851562 115.679688 50.078125 115.566406 C 50.300781 115.453125 50.46875 115.28125 50.582031 115.058594 C 50.675781 114.820312 50.695312 114.578125 50.636719 114.332031 C 50.578125 114.082031 50.453125 113.875 50.265625 113.703125 C 49.964844 113.367188 49.738281 112.988281 49.585938 112.566406 C 49.429688 112.144531 49.359375 111.710938 49.371094 111.261719 C 49.382812 110.8125 49.476562 110.382812 49.652344 109.96875 C 49.824219 109.554688 50.070312 109.191406 50.386719 108.871094 C 50.699219 108.546875 51.058594 108.292969 51.46875 108.105469 C 51.878906 107.917969 52.308594 107.8125 52.753906 107.789062 C 53.203125 107.761719 53.644531 107.820312 54.070312 107.957031 C 54.496094 108.097656 54.886719 108.308594 55.234375 108.59375 C 55.417969 108.746094 55.589844 108.914062 55.742188 109.097656 C 55.894531 109.285156 56.023438 109.484375 56.136719 109.695312 C 56.25 109.90625 56.339844 110.128906 56.40625 110.359375 C 56.472656 110.589844 56.515625 110.824219 56.535156 111.0625 C 56.554688 111.300781 56.550781 111.539062 56.519531 111.777344 C 56.492188 112.015625 56.4375 112.25 56.363281 112.476562 C 56.285156 112.703125 56.1875 112.921875 56.066406 113.128906 C 55.949219 113.335938 55.808594 113.527344 55.648438 113.707031 C 55.445312 113.867188 55.3125 114.074219 55.25 114.324219 C 55.191406 114.578125 55.214844 114.820312 55.324219 115.058594 C 55.449219 115.289062 55.632812 115.460938 55.871094 115.574219 C 56.109375 115.6875 56.355469 115.722656 56.617188 115.675781 C 58.5625 115.660156 60.507812 115.660156 62.484375 115.664062 L 64.351562 115.664062 L 64.351562 115.710938 C 64.367188 115.867188 64.375 116.011719 64.375 116.15625 Z M 45.179688 130.308594 C 45.414062 130.207031 45.636719 130.078125 45.847656 129.929688 C 46.054688 129.777344 46.246094 129.605469 46.417969 129.410156 C 46.589844 129.21875 46.738281 129.011719 46.867188 128.785156 C 46.992188 128.5625 47.09375 128.324219 47.167969 128.078125 C 47.246094 127.832031 47.292969 127.578125 47.3125 127.324219 C 47.332031 127.066406 47.328125 126.808594 47.292969 126.554688 C 47.257812 126.296875 47.195312 126.050781 47.105469 125.808594 C 47.015625 125.566406 46.902344 125.335938 46.765625 125.117188 C 46.625 124.898438 46.464844 124.699219 46.285156 124.515625 C 46.101562 124.332031 45.902344 124.171875 45.683594 124.03125 C 45.46875 123.894531 45.238281 123.777344 44.996094 123.6875 C 44.753906 123.597656 44.503906 123.535156 44.25 123.5 C 43.992188 123.460938 43.738281 123.453125 43.480469 123.472656 C 43.222656 123.492188 42.96875 123.539062 42.722656 123.613281 C 42.472656 123.6875 42.238281 123.785156 42.011719 123.910156 C 41.785156 124.039062 41.574219 124.183594 41.382812 124.355469 C 41.1875 124.523438 40.597656 125.03125 40.007812 124.628906 C 39.644531 124.359375 39.445312 124 39.410156 123.546875 C 39.390625 121.714844 39.402344 119.847656 39.410156 118.046875 L 39.421875 116.023438 C 39.417969 115.921875 39.410156 115.816406 39.394531 115.714844 L 33.421875 115.714844 C 34.101562 119.015625 33.425781 121.144531 31.246094 122.597656 C 30.765625 122.917969 30.25 123.164062 29.699219 123.328125 C 29.144531 123.492188 28.578125 123.574219 28 123.570312 C 27.421875 123.5625 26.859375 123.472656 26.308594 123.296875 C 25.757812 123.121094 25.246094 122.867188 24.773438 122.539062 C 22.648438 121.0625 21.980469 118.894531 22.691406 115.726562 L 16.695312 115.726562 L 16.695312 136.8125 C 16.695312 138.113281 16.996094 138.40625 18.296875 138.40625 L 39.410156 138.40625 C 39.425781 138.355469 39.433594 138.300781 39.4375 138.246094 L 39.4375 136.871094 C 39.4375 134.820312 39.441406 132.773438 39.425781 130.722656 C 39.378906 130.464844 39.410156 130.21875 39.519531 129.976562 C 39.628906 129.738281 39.796875 129.550781 40.023438 129.417969 C 40.265625 129.304688 40.515625 129.277344 40.777344 129.335938 C 41.042969 129.398438 41.257812 129.53125 41.425781 129.738281 C 41.671875 129.96875 41.949219 130.15625 42.253906 130.304688 C 42.558594 130.453125 42.878906 130.550781 43.214844 130.601562 C 43.546875 130.652344 43.882812 130.652344 44.21875 130.605469 C 44.554688 130.554688 44.871094 130.457031 45.179688 130.308594 Z M 16.953125 104.0625 C 16.980469 103.792969 16.972656 103.523438 16.921875 103.257812 C 16.890625 103.039062 16.875 102.824219 16.871094 102.605469 L 16.871094 102.535156 C 16.875 102.144531 16.882812 101.65625 17.148438 101.433594 C 17.445312 101.257812 17.765625 101.195312 18.105469 101.25 C 18.195312 101.25 18.28125 101.25 18.359375 101.25 C 18.496094 101.261719 18.617188 101.300781 18.734375 101.367188 C 18.769531 101.386719 18.808594 101.40625 18.847656 101.421875 L 23.855469 103.402344 L 25.386719 99.542969 C 22.988281 99.183594 21.539062 97.898438 21.078125 95.710938 C 20.976562 95.285156 20.9375 94.851562 20.960938 94.414062 C 20.988281 93.972656 21.078125 93.546875 21.230469 93.136719 C 21.386719 92.722656 21.597656 92.34375 21.863281 91.996094 C 22.132812 91.644531 22.445312 91.34375 22.804688 91.089844 C 24.683594 89.675781 26.679688 89.691406 28.746094 91.132812 L 30.273438 87.285156 C 30.203125 87.25 30.148438 87.222656 30.09375 87.199219 L 27.9375 86.347656 C 23.621094 84.632812 19.308594 82.925781 14.992188 81.214844 C 14.3125 80.945312 14.066406 81.0625 13.78125 81.773438 C 11.949219 86.375 10.113281 90.976562 8.285156 95.582031 L 7.941406 96.429688 C 7.878906 96.589844 7.820312 96.753906 7.757812 96.925781 L 7.726562 97.007812 L 12.726562 98.988281 C 12.789062 99.015625 12.859375 99.039062 12.925781 99.066406 C 13.363281 99.226562 13.90625 99.425781 13.996094 100.097656 C 14.085938 100.773438 13.605469 101.070312 13.222656 101.300781 C 13.144531 101.347656 13.070312 101.390625 13 101.4375 C 12.765625 101.597656 12.5625 101.792969 12.390625 102.019531 C 12.222656 102.246094 12.09375 102.492188 12.003906 102.761719 C 11.914062 103.03125 11.871094 103.308594 11.875 103.589844 C 11.878906 103.875 11.925781 104.148438 12.019531 104.417969 C 12.113281 104.683594 12.25 104.929688 12.425781 105.152344 C 12.601562 105.375 12.808594 105.5625 13.042969 105.71875 C 13.28125 105.875 13.539062 105.984375 13.8125 106.054688 C 14.089844 106.125 14.367188 106.148438 14.652344 106.128906 C 14.929688 106.109375 15.203125 106.046875 15.460938 105.9375 C 15.71875 105.832031 15.953125 105.683594 16.164062 105.496094 C 16.371094 105.308594 16.542969 105.089844 16.679688 104.847656 C 16.816406 104.601562 16.90625 104.339844 16.953125 104.0625 Z M 62.84375 90.808594 C 55.921875 90.808594 49 90.808594 42.078125 90.808594 C 41.933594 90.808594 41.789062 90.820312 41.636719 90.832031 L 41.589844 90.832031 L 41.589844 92.679688 C 41.589844 94.671875 41.582031 96.558594 41.605469 98.480469 C 41.640625 98.726562 41.609375 98.964844 41.503906 99.191406 C 41.398438 99.417969 41.242188 99.601562 41.03125 99.734375 C 40.800781 99.859375 40.558594 99.898438 40.300781 99.855469 C 40.042969 99.808594 39.828125 99.691406 39.652344 99.496094 C 39.3125 99.183594 38.929688 98.949219 38.496094 98.789062 C 38.066406 98.628906 37.621094 98.554688 37.160156 98.570312 C 36.703125 98.582031 36.261719 98.683594 35.839844 98.867188 C 35.417969 99.054688 35.046875 99.3125 34.730469 99.640625 C 34.40625 99.96875 34.15625 100.34375 33.980469 100.769531 C 33.800781 101.191406 33.710938 101.632812 33.699219 102.09375 C 33.691406 102.550781 33.769531 102.996094 33.933594 103.425781 C 34.09375 103.855469 34.332031 104.242188 34.640625 104.578125 C 34.949219 104.921875 35.308594 105.191406 35.722656 105.394531 C 36.136719 105.59375 36.574219 105.710938 37.035156 105.738281 C 37.492188 105.769531 37.941406 105.714844 38.378906 105.570312 C 38.816406 105.425781 39.210938 105.207031 39.5625 104.90625 C 39.726562 104.691406 39.941406 104.550781 40.207031 104.484375 C 40.472656 104.421875 40.726562 104.449219 40.972656 104.570312 C 41.21875 104.6875 41.398438 104.871094 41.511719 105.121094 C 41.625 105.371094 41.644531 105.625 41.574219 105.890625 C 41.574219 107.722656 41.574219 109.558594 41.574219 111.394531 L 41.574219 113.488281 L 47.613281 113.488281 C 46.742188 110.804688 47.347656 108.578125 49.414062 106.867188 C 49.855469 106.496094 50.34375 106.203125 50.875 105.988281 C 51.410156 105.773438 51.960938 105.644531 52.535156 105.601562 C 53.109375 105.558594 53.675781 105.605469 54.234375 105.738281 C 54.792969 105.875 55.320312 106.089844 55.808594 106.390625 C 58.414062 107.996094 59.265625 110.375 58.34375 113.480469 L 64.382812 113.480469 L 64.382812 107.867188 C 64.382812 102.699219 64.382812 97.53125 64.382812 92.363281 C 64.375 91.144531 64.046875 90.808594 62.84375 90.808594 Z M 62.84375 90.808594 " fill-opacity="1" fill-rule="nonzero"/></g><g fill="#f04848" fill-opacity="1"><g transform="translate(70.3374, 112.544016)"><g><path d="M 6.375 -12.125 L 11.171875 -12.125 L 11.171875 -5.21875 C 11.171875 -3.457031 10.738281 -2.101562 9.875 -1.15625 C 9.019531 -0.21875 7.75 0.25 6.0625 0.25 C 4.382812 0.25 3.113281 -0.21875 2.25 -1.15625 C 1.394531 -2.101562 0.96875 -3.457031 0.96875 -5.21875 L 0.96875 -16.546875 C 0.96875 -18.304688 1.394531 -19.660156 2.25 -20.609375 C 3.113281 -21.554688 4.382812 -22.03125 6.0625 -22.03125 C 7.75 -22.03125 9.019531 -21.554688 9.875 -20.609375 C 10.738281 -19.660156 11.171875 -18.304688 11.171875 -16.546875 L 11.171875 -14.4375 L 7.9375 -14.4375 L 7.9375 -16.765625 C 7.9375 -17.554688 7.773438 -18.113281 7.453125 -18.4375 C 7.128906 -18.757812 6.695312 -18.921875 6.15625 -18.921875 C 5.613281 -18.921875 5.179688 -18.757812 4.859375 -18.4375 C 4.546875 -18.113281 4.390625 -17.554688 4.390625 -16.765625 L 4.390625 -5.015625 C 4.390625 -4.222656 4.546875 -3.671875 4.859375 -3.359375 C 5.179688 -3.046875 5.613281 -2.890625 6.15625 -2.890625 C 6.695312 -2.890625 7.128906 -3.046875 7.453125 -3.359375 C 7.773438 -3.671875 7.9375 -4.222656 7.9375 -5.015625 L 7.9375 -9.015625 L 6.375 -9.015625 Z M 6.375 -12.125 "/></g></g></g><g fill="#f04848" fill-opacity="1"><g transform="translate(82.468032, 112.544016)"><g><path d="M 12.3125 0 L 8.859375 0 L 8.28125 -3.953125 L 4.078125 -3.953125 L 3.484375 0 L 0.34375 0 L 3.828125 -21.78125 L 8.828125 -21.78125 Z M 4.515625 -6.90625 L 7.8125 -6.90625 L 6.15625 -17.921875 Z M 4.515625 -6.90625 "/></g></g></g><g fill="#f04848" fill-opacity="1"><g transform="translate(95.127435, 112.544016)"><g><path d="M 6.40625 -21.78125 C 8.1875 -21.78125 9.476562 -21.363281 10.28125 -20.53125 C 11.082031 -19.695312 11.484375 -18.441406 11.484375 -16.765625 L 11.484375 -15.984375 C 11.484375 -14.867188 11.304688 -13.945312 10.953125 -13.21875 C 10.597656 -12.488281 10.035156 -11.953125 9.265625 -11.609375 C 10.203125 -11.253906 10.863281 -10.675781 11.25 -9.875 C 11.632812 -9.070312 11.828125 -8.09375 11.828125 -6.9375 L 11.828125 -5.171875 C 11.828125 -3.484375 11.390625 -2.195312 10.515625 -1.3125 C 9.640625 -0.4375 8.34375 0 6.625 0 L 1.25 0 L 1.25 -21.78125 Z M 4.671875 -9.796875 L 4.671875 -3.109375 L 6.625 -3.109375 C 7.207031 -3.109375 7.648438 -3.265625 7.953125 -3.578125 C 8.253906 -3.890625 8.40625 -4.445312 8.40625 -5.25 L 8.40625 -7.15625 C 8.40625 -8.164062 8.234375 -8.859375 7.890625 -9.234375 C 7.546875 -9.609375 6.976562 -9.796875 6.1875 -9.796875 Z M 4.671875 -18.671875 L 4.671875 -12.90625 L 6 -12.90625 C 6.644531 -12.90625 7.148438 -13.070312 7.515625 -13.40625 C 7.878906 -13.738281 8.0625 -14.34375 8.0625 -15.21875 L 8.0625 -16.421875 C 8.0625 -17.210938 7.921875 -17.785156 7.640625 -18.140625 C 7.359375 -18.492188 6.914062 -18.671875 6.3125 -18.671875 Z M 4.671875 -18.671875 "/></g></g></g><g fill="#f04848" fill-opacity="1"><g transform="translate(107.755733, 112.544016)"><g><path d="M 8.40625 0 C 8.363281 -0.144531 8.320312 -0.28125 8.28125 -0.40625 C 8.238281 -0.53125 8.203125 -0.6875 8.171875 -0.875 C 8.140625 -1.0625 8.117188 -1.296875 8.109375 -1.578125 C 8.097656 -1.867188 8.09375 -2.234375 8.09375 -2.671875 L 8.09375 -6.09375 C 8.09375 -7.113281 7.914062 -7.828125 7.5625 -8.234375 C 7.207031 -8.648438 6.632812 -8.859375 5.84375 -8.859375 L 4.671875 -8.859375 L 4.671875 0 L 1.25 0 L 1.25 -21.78125 L 6.40625 -21.78125 C 8.1875 -21.78125 9.476562 -21.363281 10.28125 -20.53125 C 11.082031 -19.695312 11.484375 -18.441406 11.484375 -16.765625 L 11.484375 -15.0625 C 11.484375 -12.820312 10.734375 -11.347656 9.234375 -10.640625 C 10.109375 -10.285156 10.707031 -9.707031 11.03125 -8.90625 C 11.351562 -8.113281 11.515625 -7.144531 11.515625 -6 L 11.515625 -2.640625 C 11.515625 -2.097656 11.535156 -1.625 11.578125 -1.21875 C 11.617188 -0.820312 11.722656 -0.414062 11.890625 0 Z M 4.671875 -18.671875 L 4.671875 -11.984375 L 6 -11.984375 C 6.644531 -11.984375 7.148438 -12.144531 7.515625 -12.46875 C 7.878906 -12.800781 8.0625 -13.40625 8.0625 -14.28125 L 8.0625 -16.421875 C 8.0625 -17.210938 7.921875 -17.785156 7.640625 -18.140625 C 7.359375 -18.492188 6.914062 -18.671875 6.3125 -18.671875 Z M 4.671875 -18.671875 "/></g></g></g><g fill="#f04848" fill-opacity="1"><g transform="translate(120.259614, 112.544016)"><g><path d="M 1.25 -21.78125 L 4.671875 -21.78125 L 4.671875 0 L 1.25 0 Z M 1.25 -21.78125 "/></g></g></g><g fill="#f04848" fill-opacity="1"><g transform="translate(126.16941, 112.544016)"><g><path d="M 4.671875 -12.59375 L 9.359375 -12.59375 L 9.359375 -9.484375 L 4.671875 -9.484375 L 4.671875 -3.109375 L 10.578125 -3.109375 L 10.578125 0 L 1.25 0 L 1.25 -21.78125 L 10.578125 -21.78125 L 10.578125 -18.671875 L 4.671875 -18.671875 Z M 4.671875 -12.59375 "/></g></g></g><g fill="#f04848" fill-opacity="1"><g transform="translate(137.61575, 112.544016)"><g><path d="M 1.25 -21.78125 L 4.671875 -21.78125 L 4.671875 -3.109375 L 10.296875 -3.109375 L 10.296875 0 L 1.25 0 Z M 1.25 -21.78125 "/></g></g></g><g fill="#ffffff" fill-opacity="1"><g transform="translate(70.3374, 137.478029)"><g><path d="M 1.09375 -19.0625 L 5.828125 -19.0625 C 7.335938 -19.0625 8.457031 -18.660156 9.1875 -17.859375 C 9.925781 -17.066406 10.296875 -15.898438 10.296875 -14.359375 L 10.296875 -4.71875 C 10.296875 -3.164062 9.925781 -1.988281 9.1875 -1.1875 C 8.457031 -0.394531 7.335938 0 5.828125 0 L 1.09375 0 Z M 4.078125 -16.34375 L 4.078125 -2.71875 L 5.78125 -2.71875 C 6.25 -2.71875 6.617188 -2.851562 6.890625 -3.125 C 7.160156 -3.40625 7.296875 -3.890625 7.296875 -4.578125 L 7.296875 -14.484375 C 7.296875 -15.179688 7.160156 -15.664062 6.890625 -15.9375 C 6.617188 -16.207031 6.25 -16.34375 5.78125 -16.34375 Z M 4.078125 -16.34375 "/></g></g></g><g fill="#ffffff" fill-opacity="1"><g transform="translate(81.451368, 137.478029)"><g><path d="M 4.078125 -11.03125 L 8.203125 -11.03125 L 8.203125 -8.3125 L 4.078125 -8.3125 L 4.078125 -2.71875 L 9.265625 -2.71875 L 9.265625 0 L 1.09375 0 L 1.09375 -19.0625 L 9.265625 -19.0625 L 9.265625 -16.34375 L 4.078125 -16.34375 Z M 4.078125 -11.03125 "/></g></g></g><g fill="#ffffff" fill-opacity="1"><g transform="translate(91.475737, 137.478029)"><g><path d="M 5.609375 -3.515625 L 7.890625 -19.0625 L 10.65625 -19.0625 L 7.703125 0 L 3.234375 0 L 0.296875 -19.0625 L 3.328125 -19.0625 Z M 5.609375 -3.515625 "/></g></g></g><g fill="#ffffff" fill-opacity="1"><g transform="translate(102.426265, 137.478029)"><g><path d="M 4.078125 -11.03125 L 8.203125 -11.03125 L 8.203125 -8.3125 L 4.078125 -8.3125 L 4.078125 -2.71875 L 9.265625 -2.71875 L 9.265625 0 L 1.09375 0 L 1.09375 -19.0625 L 9.265625 -19.0625 L 9.265625 -16.34375 L 4.078125 -16.34375 Z M 4.078125 -11.03125 "/></g></g></g><g fill="#ffffff" fill-opacity="1"><g transform="translate(112.450634, 137.478029)"><g><path d="M 1.09375 -19.0625 L 4.078125 -19.0625 L 4.078125 -2.71875 L 9.015625 -2.71875 L 9.015625 0 L 1.09375 0 Z M 1.09375 -19.0625 "/></g></g></g><g fill="#ffffff" fill-opacity="1"><g transform="translate(121.739518, 137.478029)"><g><path d="M 3.84375 -4.390625 C 3.84375 -3.691406 3.984375 -3.203125 4.265625 -2.921875 C 4.546875 -2.640625 4.921875 -2.5 5.390625 -2.5 C 5.859375 -2.5 6.234375 -2.640625 6.515625 -2.921875 C 6.796875 -3.203125 6.9375 -3.691406 6.9375 -4.390625 L 6.9375 -14.671875 C 6.9375 -15.367188 6.796875 -15.859375 6.515625 -16.140625 C 6.234375 -16.421875 5.859375 -16.5625 5.390625 -16.5625 C 4.921875 -16.5625 4.546875 -16.421875 4.265625 -16.140625 C 3.984375 -15.859375 3.84375 -15.367188 3.84375 -14.671875 Z M 0.84375 -14.484375 C 0.84375 -16.023438 1.234375 -17.207031 2.015625 -18.03125 C 2.796875 -18.863281 3.921875 -19.28125 5.390625 -19.28125 C 6.859375 -19.28125 7.984375 -18.863281 8.765625 -18.03125 C 9.546875 -17.207031 9.9375 -16.023438 9.9375 -14.484375 L 9.9375 -4.578125 C 9.9375 -3.035156 9.546875 -1.847656 8.765625 -1.015625 C 7.984375 -0.191406 6.859375 0.21875 5.390625 0.21875 C 3.921875 0.21875 2.796875 -0.191406 2.015625 -1.015625 C 1.234375 -1.847656 0.84375 -3.035156 0.84375 -4.578125 Z M 0.84375 -14.484375 "/></g></g></g><g fill="#ffffff" fill-opacity="1"><g transform="translate(132.526606, 137.478029)"><g><path d="M 5.5 -19.0625 C 7.007812 -19.0625 8.128906 -18.660156 8.859375 -17.859375 C 9.597656 -17.066406 9.96875 -15.898438 9.96875 -14.359375 L 9.96875 -11.875 C 9.96875 -10.332031 9.597656 -9.160156 8.859375 -8.359375 C 8.128906 -7.554688 7.007812 -7.15625 5.5 -7.15625 L 4.078125 -7.15625 L 4.078125 0 L 1.09375 0 L 1.09375 -19.0625 Z M 4.078125 -16.34375 L 4.078125 -9.890625 L 5.5 -9.890625 C 5.96875 -9.890625 6.328125 -10.015625 6.578125 -10.265625 C 6.835938 -10.523438 6.96875 -11 6.96875 -11.6875 L 6.96875 -14.546875 C 6.96875 -15.234375 6.835938 -15.703125 6.578125 -15.953125 C 6.328125 -16.210938 5.96875 -16.34375 5.5 -16.34375 Z M 4.078125 -16.34375 "/></g></g></g><g fill="#ffffff" fill-opacity="1"><g transform="translate(142.79613, 137.478029)"><g><path d="M 4.078125 -11.03125 L 8.203125 -11.03125 L 8.203125 -8.3125 L 4.078125 -8.3125 L 4.078125 -2.71875 L 9.265625 -2.71875 L 9.265625 0 L 1.09375 0 L 1.09375 -19.0625 L 9.265625 -19.0625 L 9.265625 -16.34375 L 4.078125 -16.34375 Z M 4.078125 -11.03125 "/></g></g></g><g fill="#ffffff" fill-opacity="1"><g transform="translate(152.820499, 137.478029)"><g><path d="M 7.359375 0 C 7.316406 -0.125 7.273438 -0.238281 7.234375 -0.34375 C 7.203125 -0.457031 7.171875 -0.59375 7.140625 -0.75 C 7.117188 -0.914062 7.101562 -1.125 7.09375 -1.375 C 7.082031 -1.632812 7.078125 -1.957031 7.078125 -2.34375 L 7.078125 -5.34375 C 7.078125 -6.226562 6.921875 -6.851562 6.609375 -7.21875 C 6.304688 -7.582031 5.8125 -7.765625 5.125 -7.765625 L 4.078125 -7.765625 L 4.078125 0 L 1.09375 0 L 1.09375 -19.0625 L 5.609375 -19.0625 C 7.171875 -19.0625 8.300781 -18.695312 9 -17.96875 C 9.695312 -17.25 10.046875 -16.148438 10.046875 -14.671875 L 10.046875 -13.1875 C 10.046875 -11.21875 9.394531 -9.925781 8.09375 -9.3125 C 8.851562 -9 9.375 -8.492188 9.65625 -7.796875 C 9.9375 -7.097656 10.078125 -6.25 10.078125 -5.25 L 10.078125 -2.3125 C 10.078125 -1.84375 10.09375 -1.429688 10.125 -1.078125 C 10.164062 -0.722656 10.257812 -0.363281 10.40625 0 Z M 4.078125 -16.34375 L 4.078125 -10.484375 L 5.25 -10.484375 C 5.8125 -10.484375 6.25 -10.628906 6.5625 -10.921875 C 6.882812 -11.210938 7.046875 -11.738281 7.046875 -12.5 L 7.046875 -14.375 C 7.046875 -15.070312 6.921875 -15.570312 6.671875 -15.875 C 6.429688 -16.1875 6.050781 -16.34375 5.53125 -16.34375 Z M 4.078125 -16.34375 "/></g></g></g></svg>